# xmcd
#
# Track frame offsets:
#	150
#	15339
#	29062
#	46150
#	62122
#	75281
#	91007
#	105761
#	121862
#	134413
#	149162
#	161963
#	174533
#	193679
#
# Disc length: 2797 seconds
#
# Revision: 1
# Processed by: cddbd v1.5.2PL0 Copyright (c) Steve Scherf et al.
# Submitted via: audiograbber 1.82.02
#
DISCID=b30aeb0e
DTITLE=Ken Hill - Grantham St
DYEAR=2002
DGENRE=Country
TTITLE0=Midnight Blue
TTITLE1=Breakfast In Bed
TTITLE2=Lady
TTITLE3=Casual Man
TTITLE4=I Don't Think You Love Me Anymore
TTITLE5=Mexico
TTITLE6=Another Late Night
TTITLE7=Simple Things
TTITLE8=Blue Water Frightens Me
TTITLE9=Wish I Had A Friend
TTITLE10=Tickle My Tummy
TTITLE11=Your Not The Only Women Here Tonight
TTITLE12=Mr John Merrich
TTITLE13=Say Goodnight Gracie
EXTD=
EXTT0=
EXTT1=
EXTT2=
EXTT3=
EXTT4=
EXTT5=
EXTT6=
EXTT7=
EXTT8=
EXTT9=
EXTT10=
EXTT11=
EXTT12=
EXTT13=
PLAYORDER=
